<svg style="color:#FFF; opacity:0.8; fill:currentColor;" viewBox="0 0 1024 1024" version="1.1" xmlns="http://www.w3.org/2000/svg">
	<path d="M512 112A403.2 403.2 0 1 0 912.64 512 403.2 403.2 0 0 0 512 112z m156.8 440.96a14.72 14.72 0 0 1-14.72 14.72H563.2v88.32a14.72 14.72 0 0 1-14.72 14.72H471.04a14.72 14.72 0 0 1-14.72-14.72V568.32H368a14.72 14.72 0 0 1-14.72-14.72v-76.8a14.72 14.72 0 0 1 14.72-14.72h88.32V373.12a14.72 14.72 0 0 1 14.72-14.72h76.8a14.72 14.72 0 0 1 14.72 14.72v88.32h88.32a14.72 14.72 0 0 1 14.72 14.72z">
	</path>
</svg>
